<svg width="155" height="21" viewBox="0 0 155 21" fill="none" xmlns="http://www.w3.org/2000/svg">
<path d="M36.3 18.2C35.5 18.2 34.7 18.1 34.1 17.8C33.4 17.5 32.9 17.1 32.6 16.6C32.2 16.1 32 15.4 32 14.7H34.5C34.5 15.2 34.7 15.6 35 15.9C35.3 16.2 35.7 16.3 36.3 16.3C36.9 16.3 37.3 16.2 37.6 15.9C37.9 15.6 38.1 15.3 38.1 14.8C38.1 14.5 38 14.2 37.8 13.9C37.6 13.7 37.3 13.5 37 13.4C36.7 13.3 36.2 13.1 35.7 13C34.9 12.8 34.3 12.6 33.8 12.3C33.3 12.1 32.9 11.7 32.6 11.3C32.3 10.9 32.1 10.3 32.1 9.5C32.1 8.8 32.3 8.2 32.6 7.7C32.9 7.2 33.4 6.8 34.1 6.5C34.7 6.2 35.4 6.1 36.3 6.1C37.5 6.1 38.5 6.4 39.2 7C40 7.6 40.4 8.4 40.5 9.5H37.9C37.9 9.1 37.7 8.7 37.4 8.5C37.1 8.2 36.7 8.1 36.1 8.1C35.6 8.1 35.3 8.2 35 8.5C34.7 8.7 34.6 9.1 34.6 9.6C34.6 9.9 34.7 10.2 34.9 10.4C35.1 10.6 35.4 10.8 35.7 10.9C36 11 36.5 11.2 37 11.3C37.8 11.5 38.4 11.7 38.9 12C39.4 12.2 39.8 12.6 40.1 13C40.4 13.4 40.6 14 40.6 14.8C40.6 15.4 40.4 16 40.1 16.6C39.8 17.1 39.3 17.6 38.7 17.9C37.9 18.1 37.1 18.2 36.3 18.2ZM43.8 7.7C43.4 7.7 43 7.6 42.8 7.3C42.5 7 42.4 6.7 42.4 6.3C42.4 5.9 42.5 5.6 42.8 5.3C43.1 5 43.4 4.9 43.8 4.9C44.2 4.9 44.6 5 44.8 5.3C45.1 5.6 45.2 5.9 45.2 6.3C45.2 6.7 45.1 7 44.8 7.3C44.6 7.6 44.2 7.7 43.8 7.7ZM45 8.8V18.1H42.6V8.8H45ZM50.2 10.7V15.2C50.2 15.5 50.3 15.7 50.4 15.9C50.6 16 50.8 16.1 51.2 16.1H52.3V18.1H50.8C48.8 18.1 47.8 17.1 47.8 15.2V10.7H46.7V8.8H47.8V6.5H50.2V8.8H52.3V10.7H50.2V10.7ZM62.9 13.2C62.9 13.5 62.9 13.8 62.8 14.1H56C56 14.8 56.3 15.3 56.7 15.7C57.1 16.1 57.6 16.3 58.2 16.3C59.1 16.3 59.7 15.9 60.1 15.2H62.6C62.3 16.1 61.8 16.8 61.1 17.4C60.3 18 59.4 18.3 58.3 18.3C57.4 18.3 56.6 18.1 55.9 17.7C55.2 17.3 54.6 16.7 54.2 16C53.8 15.3 53.6 14.4 53.6 13.5C53.6 12.5 53.8 11.7 54.2 11C54.6 10.3 55.1 9.7 55.9 9.3C56.7 8.9 57.4 8.7 58.3 8.7C59.2 8.7 60 8.9 60.7 9.3C61.4 9.7 62 10.2 62.3 10.9C62.7 11.5 62.9 12.3 62.9 13.2ZM60.4 12.7C60.4 12 60.2 11.5 59.7 11.2C59.3 10.8 58.8 10.6 58.1 10.6C57.5 10.6 57 10.8 56.6 11.2C56.2 11.6 56 12.1 55.9 12.7H60.4ZM64.1 13.5C64.1 12.5 64.3 11.7 64.7 11C65.1 10.3 65.6 9.7 66.3 9.3C67 8.9 67.8 8.7 68.7 8.7C69.9 8.7 70.8 9 71.6 9.6C72.4 10.2 72.9 11 73.1 12H70.6C70.5 11.6 70.2 11.3 69.9 11.1C69.6 10.9 69.2 10.7 68.7 10.7C68 10.7 67.5 10.9 67.1 11.4C66.7 11.9 66.5 12.6 66.5 13.5C66.5 14.4 66.7 15.1 67.1 15.6C67.5 16.1 68 16.3 68.7 16.3C69.7 16.3 70.3 15.9 70.6 15H73.1C72.8 16 72.3 16.8 71.6 17.4C70.8 18 69.9 18.3 68.7 18.3C67.8 18.3 67 18.1 66.3 17.7C65.6 17.3 65.1 16.7 64.7 16C64.3 15.3 64.1 14.4 64.1 13.5ZM80.3 8.7C81 8.7 81.6 8.9 82.2 9.2C82.8 9.5 83.2 10 83.5 10.6C83.8 11.2 84 11.9 84 12.8V18.3H81.6V13C81.6 12.3 81.4 11.7 81 11.3C80.6 10.9 80.1 10.7 79.5 10.7C78.8 10.7 78.3 10.9 78 11.3C77.6 11.7 77.4 12.3 77.4 13V18.2H75V5.7H77.4V10C77.7 9.6 78.1 9.3 78.6 9.1C79.1 8.8 79.7 8.7 80.3 8.7ZM95 13.2C95 13.5 95 13.8 94.9 14.1H88.1C88.1 14.8 88.4 15.3 88.8 15.7C89.2 16.1 89.7 16.3 90.3 16.3C91.2 16.3 91.8 15.9 92.2 15.2H94.7C94.4 16.1 93.9 16.8 93.2 17.4C92.4 18 91.5 18.3 90.4 18.3C89.5 18.3 88.7 18.1 88 17.7C87.3 17.3 86.7 16.7 86.3 16C85.9 15.3 85.7 14.4 85.7 13.5C85.7 12.5 85.9 11.7 86.3 11C86.7 10.3 87.2 9.7 88 9.3C88.7 8.9 89.5 8.7 90.4 8.7C91.3 8.7 92.1 8.9 92.8 9.3C93.5 9.7 94.1 10.2 94.4 10.9C94.8 11.5 95 12.3 95 13.2ZM92.6 12.7C92.6 12 92.4 11.5 91.9 11.2C91.5 10.8 91 10.6 90.3 10.6C89.7 10.6 89.2 10.8 88.8 11.2C88.4 11.6 88.2 12.1 88.1 12.7H92.6ZM96.3 13.5C96.3 12.5 96.5 11.7 96.9 11C97.3 10.3 97.8 9.7 98.5 9.3C99.2 8.9 100 8.7 100.9 8.7C102.1 8.7 103 9 103.8 9.6C104.6 10.2 105.1 11 105.3 12H102.8C102.7 11.6 102.4 11.3 102.1 11.1C101.8 10.9 101.4 10.7 100.9 10.7C100.2 10.7 99.7 10.9 99.3 11.4C98.9 11.9 98.7 12.6 98.7 13.5C98.7 14.4 98.9 15.1 99.3 15.6C99.7 16.1 100.2 16.3 100.9 16.3C101.9 16.3 102.5 15.9 102.8 15H105.3C105 16 104.5 16.8 103.8 17.4C103 18 102.1 18.3 100.9 18.3C100 18.3 99.2 18.1 98.5 17.7C97.8 17.3 97.3 16.7 96.9 16C96.5 15.3 96.3 14.4 96.3 13.5ZM112.7 18.1L109.5 14.1V18.1H107.1V5.7H109.5V12.8L112.6 8.8H115.7L111.6 13.5L115.7 18.1H112.7ZM125.9 13.2C125.9 13.5 125.9 13.8 125.8 14.1H119C119 14.8 119.3 15.3 119.7 15.7C120.1 16.1 120.6 16.3 121.2 16.3C122.1 16.3 122.7 15.9 123.1 15.2H125.6C125.3 16.1 124.8 16.8 124.1 17.4C123.3 18 122.4 18.3 121.3 18.3C120.4 18.3 119.6 18.1 118.9 17.7C118.2 17.3 117.6 16.7 117.2 16C116.8 15.3 116.6 14.4 116.6 13.5C116.6 12.5 116.8 11.7 117.2 11C117.6 10.3 118.1 9.7 118.9 9.3C119.6 8.9 120.4 8.7 121.3 8.7C122.2 8.7 123 8.9 123.7 9.3C124.4 9.7 125 10.2 125.3 10.9C125.7 11.5 125.9 12.3 125.9 13.2ZM123.4 12.7C123.4 12 123.2 11.5 122.7 11.2C122.3 10.8 121.8 10.6 121.1 10.6C120.5 10.6 120 10.8 119.6 11.2C119.2 11.6 119 12.1 118.9 12.7H123.4ZM130.1 10.5C130.4 9.9 130.8 9.5 131.3 9.2C131.8 8.9 132.4 8.7 133 8.7V11.2H132.4C131.7 11.2 131.1 11.4 130.7 11.7C130.3 12 130.1 12.7 130.1 13.5V18.1H127.7V8.8H130.1V10.5Z" fill="#1D2155"/>
<path d="M11.2 20.9L25.9 5.2L20.4 0.3L5.70001 16L11.2 20.9Z" fill="#004BFF"/>
<path d="M16.2 15.6L5 5.6L0 10.9L11.2 20.9L16.2 15.6Z" fill="#58EDFF"/>
<path d="M16.2 15.6L10.7 10.7L5.70001 16L11.2 20.9L16.2 15.6Z" fill="#00BBFF"/>
<path d="M16.7 15.1L11.2 10.2L10.7 10.7L16.2 15.6L16.7 15.1Z" fill="#0042E4"/>
<path d="M152.845 8H139.402C138.577 8 138 7.34021 138 6.59794V1.40206C138 0.57732 138.66 0 139.402 0H152.845C153.67 0 154.247 0.659794 154.247 1.40206V6.59794C154.247 7.34021 153.588 8 152.845 8Z" fill="#004BFF"/>
<path d="M140.392 2.06186H141.629C142.536 2.06186 143.196 2.39175 143.196 3.2165C143.196 4.04124 142.536 4.45361 141.629 4.45361H140.887V6.02062H140.309V2.06186H140.392ZM141.629 4.04124C142.371 4.04124 142.701 3.79382 142.701 3.2165C142.701 2.63918 142.371 2.47423 141.629 2.47423H140.969V4.04124H141.629Z" fill="white" stroke="white" stroke-width="0.5" stroke-miterlimit="10"/>
<path d="M144.598 2.06186H145.918C146.742 2.06186 147.402 2.39175 147.402 3.2165C147.402 4.04124 146.742 4.37113 145.918 4.37113H145.175V6.02062H144.598V2.06186ZM145.835 3.87629C146.495 3.87629 146.825 3.62887 146.825 3.13402C146.825 2.63918 146.495 2.39175 145.835 2.39175H145.175V3.87629H145.835ZM146.247 3.87629L147.567 5.93814H146.99L145.918 4.12371L146.247 3.87629Z" fill="white" stroke="white" stroke-width="0.5" stroke-miterlimit="10"/>
<path d="M148.557 3.95876C148.557 2.72165 149.216 1.89691 150.206 1.89691C151.196 1.89691 151.856 2.63918 151.856 3.95876C151.856 5.27835 151.196 6.02062 150.206 6.02062C149.216 6.02062 148.557 5.27835 148.557 3.95876ZM151.196 3.95876C151.196 2.96907 150.784 2.39175 150.124 2.39175C149.464 2.39175 149.052 2.96907 149.052 3.95876C149.052 4.94845 149.464 5.60825 150.124 5.60825C150.784 5.60825 151.196 5.03093 151.196 3.95876Z" fill="white" stroke="white" stroke-width="0.5" stroke-miterlimit="10"/>
</svg>
